<?xml version="1.0"?>
<svg xmlns="http://www.w3.org/2000/svg" width="512" height="512" viewBox="0 0 128 128"><g><path d="M99.928,31.159c-29.906-3.445-34.189-13.4-34.278-13.62a1.759,1.759,0,0,0-3.3,0c-.039.1-4.19,10.157-34.28,13.623a1.749,1.749,0,0,0-1.55,1.738V66.229a45.035,45.035,0,0,0,23.646,39.692A71.689,71.689,0,0,0,63.5,111.553a1.747,1.747,0,0,0,1.006,0,71.689,71.689,0,0,0,13.329-5.632,45.035,45.035,0,0,0,23.646-39.692V32.9A1.749,1.749,0,0,0,99.928,31.159Zm-1.95,35.07a41.536,41.536,0,0,1-21.809,36.612A68.814,68.814,0,0,1,64,108.047a68.814,68.814,0,0,1-12.169-5.206A41.536,41.536,0,0,1,30.022,66.229V34.448c22.341-2.82,30.857-9.384,33.964-13.1a21.806,21.806,0,0,0,4.906,4.24c6.51,4.27,16.29,7.248,29.086,8.859Z"/><path d="M62.958,27.15C55.076,33,41.97,35.91,34.859,37.126A1.751,1.751,0,0,0,33.4,38.851V66.229A38.159,38.159,0,0,0,53.437,99.865,67.413,67.413,0,0,0,63.43,104.3a1.757,1.757,0,0,0,1.14,0,67.367,67.367,0,0,0,9.993-4.438A38.159,38.159,0,0,0,94.6,66.229V38.851a1.751,1.751,0,0,0-1.455-1.725C86.03,35.91,72.924,33,65.042,27.15A1.746,1.746,0,0,0,62.958,27.15ZM91.1,66.229A34.663,34.663,0,0,1,72.9,96.785a64.563,64.563,0,0,1-8.9,4.009,64.563,64.563,0,0,1-8.9-4.009A34.662,34.662,0,0,1,36.9,66.229V40.319C45.413,38.766,56.393,35.886,64,30.7c7.607,5.184,18.587,8.064,27.1,9.617Z"/><path d="M56.787,45.5V56.787H45.5a1.75,1.75,0,0,0-1.75,1.75V69.463a1.75,1.75,0,0,0,1.75,1.75H56.787V82.5a1.75,1.75,0,0,0,1.75,1.75H69.463a1.75,1.75,0,0,0,1.75-1.75V71.213H82.5a1.75,1.75,0,0,0,1.75-1.75V58.537a1.75,1.75,0,0,0-1.75-1.75H71.213V45.5a1.75,1.75,0,0,0-1.75-1.75H58.537A1.75,1.75,0,0,0,56.787,45.5Zm3.5,13.037V47.25h7.426V58.537a1.751,1.751,0,0,0,1.75,1.75H80.75v7.426H69.463a1.751,1.751,0,0,0-1.75,1.75V80.75H60.287V69.463a1.751,1.751,0,0,0-1.75-1.75H47.25V60.287H58.537A1.751,1.751,0,0,0,60.287,58.537Z"/></g></svg>
